<svg width="15" height="11" viewBox="0 0 15 11" fill="none" xmlns="http://www.w3.org/2000/svg">
<mask id="path-1-inside-1_3423_1196" fill="white">
<path d="M7.5 11C7.27728 11 7.05545 10.899 6.8855 10.6965L0.254567 2.77263C-0.0848542 2.36654 -0.0848553 1.40502 0.254566 1C0.593987 0.593912 1.66066 0.593913 2 1L7.5 7.5L13 1C13.3394 0.593913 14.4061 0.593912 14.7454 1C15.0849 1.4056 15.0849 2.36654 14.7454 2.77263L8.1141 10.6965C7.94463 10.899 7.72232 11 7.5 11Z"/>
</mask>
<path d="M7.5 11C7.27728 11 7.05545 10.899 6.8855 10.6965L0.254567 2.77263C-0.0848542 2.36654 -0.0848553 1.40502 0.254566 1C0.593987 0.593912 1.66066 0.593913 2 1L7.5 7.5L13 1C13.3394 0.593913 14.4061 0.593912 14.7454 1C15.0849 1.4056 15.0849 2.36654 14.7454 2.77263L8.1141 10.6965C7.94463 10.899 7.72232 11 7.5 11Z" fill="white"/>
<path d="M6.8855 10.6965L3.81789 13.2636L3.82151 13.2679L6.8855 10.6965ZM0.254567 2.77263L-2.81454 5.33789L-2.81304 5.33969L0.254567 2.77263ZM0.254566 1L3.32037 3.56922L3.32368 3.56526L0.254566 1ZM2 1L-1.06941 3.5649L-1.06151 3.57436L-1.05354 3.58377L2 1ZM7.5 7.5L4.44646 10.0838L7.5 13.6925L10.5535 10.0838L7.5 7.5ZM13 1L16.0535 3.58377L16.0614 3.57454L16.0691 3.56526L13 1ZM14.7454 1L11.676 3.5649L11.6778 3.56706L14.7454 1ZM14.7454 2.77263L17.813 5.33978L17.8145 5.33789L14.7454 2.77263ZM8.1141 10.6965L5.04657 8.12937L5.04649 8.12946L8.1141 10.6965ZM7.5 7C8.5415 7 9.41373 7.48675 9.94949 8.12514L3.82151 13.2679C4.69718 14.3113 6.01306 15 7.5 15V7ZM9.9531 8.12946L3.32217 0.205574L-2.81304 5.33969L3.81789 13.2636L9.9531 8.12946ZM3.32368 0.207373C3.71263 0.672726 3.86169 1.10791 3.91922 1.31614C3.98389 1.55026 4 1.74176 4 1.88591C4 2.03002 3.98391 2.22193 3.91898 2.45674C3.86126 2.6655 3.7115 3.10248 3.32036 3.56922L-2.81123 -1.56922C-3.84078 -0.34068 -4 1.10106 -4 1.88592C-4 2.67194 -3.8403 4.11066 -2.81454 5.33789L3.32368 0.207373ZM3.32368 3.56526C2.77234 4.22489 2.15511 4.4776 1.88208 4.56817C1.56967 4.6718 1.31225 4.69543 1.12731 4.69543C0.942376 4.69543 0.684926 4.6718 0.372452 4.56814C0.0993764 4.47756 -0.518008 4.22476 -1.06941 3.5649L5.06941 -1.5649C4.34834 -2.42781 3.47037 -2.83288 2.89125 -3.02499C2.27272 -3.23017 1.66377 -3.30457 1.12732 -3.30457C0.59086 -3.30457 -0.0180723 -3.23017 -0.636555 -3.02502C-1.21565 -2.83293 -2.09349 -2.42794 -2.81455 -1.56526L3.32368 3.56526ZM-1.05354 3.58377L4.44646 10.0838L10.5535 4.91623L5.05355 -1.58377L-1.05354 3.58377ZM10.5535 10.0838L16.0535 3.58377L9.94646 -1.58377L4.44646 4.91623L10.5535 10.0838ZM16.0691 3.56526C15.5178 4.22489 14.9006 4.4776 14.6275 4.56817C14.3151 4.67179 14.0577 4.69543 13.8728 4.69543C13.6878 4.69543 13.4304 4.6718 13.1179 4.56814C12.8448 4.47756 12.2274 4.22476 11.676 3.5649L17.8148 -1.5649C17.0938 -2.42781 16.2158 -2.83288 15.6367 -3.02499C15.0182 -3.23017 14.4092 -3.30457 13.8727 -3.30457C13.3363 -3.30457 12.7274 -3.23017 12.1089 -3.02502C11.5298 -2.83293 10.6519 -2.42793 9.93089 -1.56526L16.0691 3.56526ZM11.6778 3.56706C11.2881 3.10133 11.1387 2.66553 11.081 2.45682C11.0161 2.22224 11 2.0304 11 1.88614C11 1.74185 11.0161 1.5502 11.0809 1.31594C11.1385 1.10746 11.2876 0.672469 11.6763 0.207373L17.8145 5.33789C18.8401 4.11092 19 2.6726 19 1.88614C19 1.1002 18.8403 -0.33949 17.813 -1.56706L11.6778 3.56706ZM11.6779 0.205482L5.04657 8.12937L11.1816 13.2637L17.813 5.33978L11.6779 0.205482ZM5.04649 8.12946C5.58568 7.48513 6.46034 7 7.5 7V15C8.98429 15 10.3036 14.3129 11.1817 13.2636L5.04649 8.12946Z" fill="white" mask="url(#path-1-inside-1_3423_1196)"/>
</svg>
