<svg width="32" height="29" viewBox="0 0 32 29" fill="none" xmlns="http://www.w3.org/2000/svg">
<path d="M22.2222 9.82703L16 19.1941M30 16.0718C29.9968 18.1694 29.5258 20.2396 28.6213 22.1307C27.7169 24.0217 26.4021 25.6855 24.7733 27H7.22665C5.38187 25.5111 3.94339 23.5771 3.04568 21.3788C2.14798 19.1804 1.82037 16.7895 2.09349 14.4295C2.36661 12.0696 3.23154 9.81765 4.60741 7.88431C5.98327 5.95097 7.82515 4.39934 9.96085 3.37449C12.0965 2.34963 14.4563 1.88502 16.8195 2.0241C19.1827 2.16317 21.4722 2.90138 23.4739 4.16971C25.4756 5.43804 27.1242 7.19508 28.2655 9.27655C29.4068 11.358 30.0036 13.696 30 16.0718Z" stroke="white" stroke-width="3" stroke-linecap="round" stroke-linejoin="round"/>
</svg>
