<svg width="25" height="25" viewBox="0 0 25 25" fill="none" xmlns="http://www.w3.org/2000/svg">
<path fill-rule="evenodd" clip-rule="evenodd" d="M9.91603 13.7678C9.91603 13.7678 7.42449 12.5818 4.40994 13.5144C5.43341 12.5576 7.39411 11.3264 8.03762 11.0435C8.62548 10.7851 10.6607 10.7139 10.8905 10.7059C11.0451 10.4394 13.5178 3.06956 20.5973 4.528L20.6601 4.558C15.496 5.5336 14.7716 10.9399 15.0154 11.2809C15.2655 11.6303 16.7334 11.6423 18.0754 11.5539C19.2332 11.4776 20.2972 11.3265 20.4046 11.2527C20.3465 11.3183 17.2998 14.7347 13.882 14.3468C13.7288 14.8151 12.7673 17.7535 10.2417 19.3651C7.95823 20.8222 4.09054 20.6844 4.34682 20.6348C7.22621 19.82 9.91603 13.7678 9.91603 13.7678Z" fill="url(#paint0_linear_3423_1966)"/>
<path fill-rule="evenodd" clip-rule="evenodd" d="M13.9854 14.5058C13.1419 16.9815 11.5508 18.9497 9.71954 19.835C7.54699 20.8854 4.5478 20.8621 4.30819 20.8066C4.12507 20.7641 4.12292 20.523 4.30023 20.4752C4.78989 20.3433 5.27187 20.0005 5.34841 19.946C7.33098 18.5359 9.09174 15.1168 9.67635 13.8598C9.64403 13.8469 9.60617 13.832 9.56209 13.8153C8.313 13.3411 7.09228 13.3233 6.87358 13.3202C5.46676 13.2996 4.51077 13.654 4.42945 13.6646C4.29366 13.6823 4.19566 13.5145 4.30681 13.4037C4.4055 13.3054 4.6503 13.1031 4.68089 13.0778C5.82346 12.1335 7.61723 11.0384 8.08668 10.8817C8.75594 10.6584 10.4599 10.596 10.8074 10.5828C11.1845 9.689 13.7871 3.03598 20.5799 4.39984C20.6498 4.41386 20.6493 4.41595 20.7128 4.44777C20.8153 4.49921 20.8022 4.65117 20.6829 4.67814C20.4642 4.72769 19.0713 4.94106 17.7552 5.98023C15.3893 7.84857 15.0087 10.8219 15.1258 11.2073C15.4189 11.5417 17.3899 11.5193 19.1859 11.3182C19.6975 11.2609 20.1928 11.1869 20.3323 11.1342L20.3339 11.1372C20.347 11.1315 20.3586 11.1226 20.372 11.1175C20.4075 11.104 20.5109 11.1206 20.5381 11.2138C20.5586 11.284 20.515 11.3373 20.5081 11.3456C20.5081 11.3456 19.876 12.0644 18.8646 12.8159C16.4003 14.6468 14.5787 14.5572 13.9854 14.5058ZM9.99305 13.6058C10.0087 13.619 10.0275 13.6281 10.0431 13.6413C10.0619 13.6571 10.1109 13.7283 10.0899 13.8116C10.0798 13.8517 9.68493 14.7131 9.10544 15.7431C7.90798 17.8717 6.50539 19.7175 5.11386 20.4913C6.30876 20.4557 8.62617 20.2174 10.1859 19.2141C12.8167 17.5219 13.7104 14.3535 13.7508 14.2774C13.7963 14.1916 13.8848 14.1983 13.8981 14.1994C14.1619 14.2196 15.2696 14.3891 16.9065 13.6522C18.3293 13.0117 19.4617 12.0021 19.9803 11.492C19.8609 11.5111 19.7127 11.5323 19.5284 11.5552C18.5116 11.6821 15.6582 11.9335 15.0076 11.4566C14.8792 11.3626 14.8351 11.2698 14.8437 10.9473C14.8648 10.1555 15.3267 8.0606 16.8903 6.42681C18.0183 5.24822 19.2774 4.77367 20.0918 4.56069C18.5503 4.31887 15.3377 4.20635 12.6812 7.72398C11.5557 9.21431 11.0637 10.6695 11.0005 10.7671C10.9503 10.8445 10.8863 10.8319 10.7858 10.836C9.77684 10.8773 8.4973 10.9851 8.09118 11.1664C7.61952 11.377 6.14252 12.266 5.00749 13.1955C5.80679 13.0158 7.27465 12.8197 9.01347 13.2737C9.57842 13.4212 9.91748 13.5722 9.99305 13.6058Z" fill="url(#paint1_linear_3423_1966)"/>
<path d="M1.56778 10.9078C1.58654 10.7848 1.51234 10.6666 1.39348 10.6301C1.08383 10.5346 0.503426 10.356 0.177371 10.2557C0.0455931 10.2151 -0.0288934 10.0759 0.0105614 9.94382C0.192139 9.33526 0.671091 7.73027 0.854024 7.11722C0.873145 7.05302 0.917167 6.99911 0.976242 6.96752C1.03532 6.93593 1.10452 6.92927 1.16852 6.94897C1.52276 7.05802 2.17565 7.25894 2.50292 7.35966C2.61736 7.3948 2.74065 7.34437 2.79766 7.23909C3.01626 6.83804 3.25884 6.45192 3.52354 6.08261C3.59539 5.98306 3.58468 5.84618 3.49828 5.75902C3.24472 5.50296 2.73387 4.9875 2.46525 4.71651C2.36872 4.61906 2.36822 4.46212 2.46411 4.36409C2.90461 3.91384 4.06542 2.72736 4.51177 2.27118C4.55885 2.22306 4.62321 2.19589 4.69049 2.19568C4.75777 2.19546 4.82234 2.22227 4.86971 2.27002C5.15039 2.55325 5.68785 3.09559 5.94855 3.35868C6.03431 3.44512 6.16972 3.45765 6.26982 3.38831C6.58275 3.17304 6.90731 2.9735 7.24235 2.79076C7.34438 2.73548 7.39525 2.61745 7.36536 2.50536C7.27474 2.16503 7.08632 1.45763 6.98714 1.0855C6.95161 0.952176 7.03031 0.81516 7.1633 0.778642C7.76925 0.612137 9.35443 0.176528 9.96438 0.0089356C10.0289 -0.00874381 10.0979 2.32889e-05 10.1559 0.0333533C10.214 0.0666834 10.2564 0.121823 10.2736 0.186454C10.3599 0.510335 10.5108 1.07666 10.5935 1.38706C10.6264 1.5106 10.747 1.58972 10.8734 1.57074C11.4237 1.48893 11.9068 1.46184 12.1953 1.45263C12.2629 1.45097 12.3282 1.47669 12.3766 1.52393C12.425 1.57117 12.4523 1.63595 12.4523 1.70355C12.4525 2.14699 12.4525 3.05269 12.4525 3.48866C12.4525 3.62438 12.3447 3.73552 12.209 3.73973C7.53616 3.90855 3.66431 7.85903 3.60488 12.4539C3.60395 12.5918 3.492 12.7029 3.35416 12.7029C2.93871 12.7034 2.11323 12.7034 1.69827 12.7034C1.63142 12.7034 1.56728 12.6767 1.52019 12.6294C1.47303 12.582 1.4467 12.5177 1.44706 12.4509C1.45191 11.9273 1.49286 11.4122 1.56778 10.9078ZM14.3605 23.499C13.6719 23.615 13.0541 23.644 12.7124 23.6509C12.6452 23.6517 12.5807 23.6257 12.5329 23.5785C12.4852 23.5313 12.4584 23.4671 12.4584 23.4C12.4582 22.9284 12.4582 21.927 12.4582 21.5319C12.4582 21.4408 12.5316 21.3667 12.6227 21.3659C17.3083 21.3059 21.2074 17.4643 21.4254 12.9586C21.431 12.8243 21.5415 12.7185 21.6758 12.7185C22.0859 12.718 22.9131 12.718 23.3334 12.718C23.4015 12.718 23.4667 12.7456 23.514 12.7947C23.5614 12.8437 23.5867 12.9098 23.5844 12.9779C23.5695 13.3644 23.535 13.746 23.4817 14.1217C23.4639 14.2441 23.5378 14.3611 23.656 14.3977C23.9539 14.4898 24.503 14.6596 24.8175 14.7568C24.9493 14.7975 25.0236 14.9368 24.984 15.0689C24.8016 15.6772 24.3207 17.2816 24.137 17.8944C24.1178 17.9586 24.0737 18.0124 24.0147 18.044C23.9555 18.0755 23.8862 18.0821 23.8222 18.0623C23.486 17.9583 22.8837 17.7721 22.5718 17.6757C22.4567 17.6402 22.3326 17.6913 22.276 17.7976C22.0531 18.2129 21.8046 18.6124 21.5326 18.9941C21.4612 19.0935 21.4719 19.2299 21.558 19.317C21.7982 19.56 22.2682 20.0355 22.5228 20.2931C22.6192 20.3907 22.6195 20.5476 22.5235 20.6455C22.0824 21.0952 20.9202 22.2801 20.4733 22.7358C20.4262 22.7839 20.3618 22.811 20.2945 22.8111C20.2272 22.8112 20.1627 22.7844 20.1154 22.7365C19.8511 22.4691 19.3615 21.9739 19.1154 21.725C19.0296 21.6381 18.8936 21.6256 18.7933 21.6955C18.4656 21.9222 18.125 22.1317 17.7728 22.3227C17.6706 22.3777 17.6194 22.4958 17.6492 22.6081C17.7339 22.9282 17.9038 23.5689 17.9964 23.9184C18.0318 24.0517 17.9529 24.1886 17.8199 24.225C17.2138 24.3907 15.628 24.8243 15.0179 24.9911C14.9533 25.0088 14.8843 24.9999 14.8263 24.9665C14.7683 24.9331 14.726 24.8779 14.7089 24.8132C14.5926 24.3744 14.3605 23.499 14.3605 23.499Z" fill="url(#paint2_linear_3423_1966)"/>
<defs>
<linearGradient id="paint0_linear_3423_1966" x1="5.91336" y1="4.9636" x2="19.1163" y2="19.3333" gradientUnits="userSpaceOnUse">
<stop stop-color="#FF875C"/>
<stop offset="0.0001" stop-color="#FE875E"/>
<stop offset="0.48" stop-color="#BF9ACA"/>
<stop offset="1" stop-color="#96C5B0"/>
</linearGradient>
<linearGradient id="paint1_linear_3423_1966" x1="5.91336" y1="4.9636" x2="19.1163" y2="19.3333" gradientUnits="userSpaceOnUse">
<stop stop-color="#FF875C"/>
<stop offset="0.0001" stop-color="#FE875E"/>
<stop offset="0.48" stop-color="#BF9ACA"/>
<stop offset="1" stop-color="#96C5B0"/>
</linearGradient>
<linearGradient id="paint2_linear_3423_1966" x1="2.62443" y1="1.12476" x2="22.4952" y2="22.7451" gradientUnits="userSpaceOnUse">
<stop stop-color="#FF875C"/>
<stop offset="0.0001" stop-color="#FE875E"/>
<stop offset="0.48" stop-color="#BF9ACA"/>
<stop offset="1" stop-color="#96C5B0"/>
</linearGradient>
</defs>
</svg>
