<svg width="25" height="25" viewBox="0 0 25 25" fill="none" xmlns="http://www.w3.org/2000/svg">
<path d="M12.4999 0.000130329C10.0277 0.000130329 7.61095 0.733238 5.55535 2.10675C3.49974 3.48026 1.8976 5.43248 0.951506 7.71654C0.00541607 10.0006 -0.242124 12.5139 0.240188 14.9387C0.722501 17.3634 1.913 19.5907 3.66115 21.3388C5.4093 23.087 7.63657 24.2775 10.0613 24.7598C12.4861 25.2421 14.9994 24.9946 17.2835 24.0485C19.5675 23.1024 21.5197 21.5003 22.8933 19.4446C24.2668 17.389 24.9999 14.9723 24.9999 12.5001C25.0074 10.8564 24.6892 9.22762 24.0637 7.70766C23.4382 6.1877 22.5177 4.80673 21.3555 3.6445C20.1933 2.48228 18.8123 1.56183 17.2923 0.936309C15.7724 0.310793 14.1436 -0.00739208 12.4999 0.000130329ZM12.4999 22.7273C10.4772 22.7273 8.49986 22.1275 6.818 21.0037C5.13614 19.8799 3.8253 18.2826 3.05122 16.4138C2.27715 14.5451 2.07461 12.4887 2.46923 10.5048C2.86385 8.52094 3.8379 6.69863 5.2682 5.26833C6.69851 3.83803 8.52082 2.86398 10.5047 2.46936C12.4886 2.07474 14.5449 2.27727 16.4137 3.05135C18.2825 3.82542 19.8798 5.13627 21.0036 6.81812C22.1273 8.49998 22.7272 10.4773 22.7272 12.5001C22.7122 15.2079 21.6299 17.8006 19.7152 19.7153C17.8004 21.6301 15.2078 22.7124 12.4999 22.7273Z" fill="white"/>
<path d="M12.4999 10.2274C12.1986 10.2274 11.9095 10.3471 11.6964 10.5602C11.4833 10.7733 11.3636 11.0623 11.3636 11.3637V18.1819C11.3636 18.4832 11.4833 18.7723 11.6964 18.9854C11.9095 19.1985 12.1986 19.3182 12.4999 19.3182C12.8013 19.3182 13.0904 19.1985 13.3035 18.9854C13.5166 18.7723 13.6363 18.4832 13.6363 18.1819V11.3637C13.6363 11.0623 13.5166 10.7733 13.3035 10.5602C13.0904 10.3471 12.8013 10.2274 12.4999 10.2274Z" fill="white"/>
<path d="M12.4999 7.95463C13.1275 7.95463 13.6363 7.44587 13.6363 6.81827C13.6363 6.19068 13.1275 5.68192 12.4999 5.68192C11.8724 5.68192 11.3636 6.19068 11.3636 6.81827C11.3636 7.44587 11.8724 7.95463 12.4999 7.95463Z" fill="white"/>
</svg>
