<svg width="60" height="57" viewBox="0 0 60 57" fill="none" xmlns="http://www.w3.org/2000/svg">
<path d="M38.1667 12.9578L29.5 26.0717M49 21.7005C48.9956 24.6371 48.3394 27.5355 47.0797 30.1829C45.82 32.8304 43.9886 35.1597 41.72 37H17.28C14.7105 34.9156 12.7069 32.208 11.4565 29.1303C10.2061 26.0526 9.74981 22.7053 10.1302 19.4013C10.5106 16.0974 11.7154 12.9447 13.6317 10.238C15.5481 7.53136 18.1136 5.35908 21.0883 3.92428C24.063 2.48949 27.3498 1.83903 30.6415 2.03373C33.9331 2.22843 37.122 3.26193 39.9101 5.03759C42.6982 6.81326 44.9944 9.27311 46.5841 12.1872C48.1738 15.1012 49.005 18.3743 49 21.7005Z" stroke="#BF9ACA" stroke-width="3" stroke-linecap="round" stroke-linejoin="round"/>
<path d="M2.90625 53.1465C2.27344 53.1465 1.67773 53.0957 1.11914 52.9941V45.1543C1.63477 45.0918 2.23242 45.0605 2.91211 45.0605C3.5957 45.0605 4.21289 45.1543 4.76367 45.3418C5.31836 45.5254 5.78125 45.7891 6.15234 46.1328C6.90234 46.8203 7.27734 47.7832 7.27734 49.0215C7.27734 50.4082 6.85938 51.4609 6.02344 52.1797C5.27344 52.8242 4.23438 53.1465 2.90625 53.1465ZM2.64258 51.7168C2.89648 51.7637 3.15039 51.7871 3.4043 51.7871C3.6582 51.7871 3.93164 51.7383 4.22461 51.6406C4.51758 51.5391 4.77148 51.3828 4.98633 51.1719C5.44727 50.7266 5.67773 50.0781 5.67773 49.2266C5.67773 47.8281 5.16797 46.9688 4.14844 46.6484C3.8125 46.543 3.42383 46.4902 2.98242 46.4902H2.82422C2.76562 46.4902 2.70508 46.4922 2.64258 46.4961V51.7168ZM12.8965 52.6367C12.3418 52.9375 11.8398 53.0879 11.3906 53.0879C10.9414 53.0879 10.5566 53.0469 10.2363 52.9648C9.91602 52.8789 9.64453 52.7539 9.42188 52.5898C8.96875 52.2578 8.74219 51.7773 8.74219 51.1484C8.74219 50.5859 9.01953 50.1172 9.57422 49.7422C10.1758 49.3359 10.9922 49.1328 12.0234 49.1328L12.2578 49.1387C12.3047 49.1426 12.3574 49.1465 12.416 49.1504C12.4746 49.1504 12.5273 49.1543 12.5742 49.1621C12.543 48.5371 12.2734 48.1719 11.7656 48.0664C11.5977 48.0312 11.418 48.0137 11.2266 48.0137C11.0391 48.0137 10.8535 48.0312 10.6699 48.0664C10.4902 48.0977 10.3145 48.1406 10.1426 48.1953C9.76367 48.3164 9.49219 48.4551 9.32812 48.6113L9.31055 48.5996L9.13477 47.3047C9.82617 46.9414 10.582 46.7598 11.4023 46.7598C12.6758 46.7598 13.4902 47.2188 13.8457 48.1367C13.959 48.4297 14.0156 48.7598 14.0156 49.127V51.248C14.0156 51.7012 14.1758 52.0098 14.4961 52.1738L13.4355 53.1465C13.2129 53.0293 13.0332 52.8594 12.8965 52.6367ZM12.5801 50.2168C12.4746 50.1973 12.3652 50.1875 12.252 50.1875H12.0176C11.1543 50.1875 10.6055 50.3789 10.3711 50.7617C10.3008 50.875 10.2656 50.9941 10.2656 51.1191C10.2656 51.2441 10.2871 51.3555 10.3301 51.4531C10.377 51.5469 10.4531 51.625 10.5586 51.6875C10.7617 51.8047 11.0625 51.8633 11.4609 51.8633C11.8633 51.8633 12.2383 51.7676 12.5859 51.5762C12.582 51.5332 12.5801 51.4883 12.5801 51.4414V50.2168ZM17.9121 53.0879C16.8105 53.0879 15.9805 52.8867 15.4219 52.4844C15.4297 52.3672 15.4414 52.2344 15.457 52.0859L15.5098 51.6641C15.541 51.3867 15.5605 51.2148 15.5684 51.1484C15.5762 51.0781 15.582 51.041 15.5859 51.0371C15.5898 51.0293 15.6211 51.0605 15.6797 51.1309C15.7383 51.1973 15.8496 51.2793 16.0137 51.377C16.1777 51.4746 16.3672 51.5605 16.582 51.6348C17.0469 51.7949 17.5312 51.875 18.0352 51.875C18.7109 51.875 19.0488 51.6504 19.0488 51.2012C19.0488 51.0566 18.9844 50.9492 18.8555 50.8789C18.625 50.7617 18.2852 50.6738 17.8359 50.6152C17.3906 50.5527 17.0254 50.4629 16.7402 50.3457C16.4551 50.2285 16.2227 50.0879 16.043 49.9238C15.7109 49.6152 15.5449 49.2109 15.5449 48.7109C15.5449 48.1016 15.7793 47.623 16.248 47.2754C16.7129 46.9316 17.3555 46.7598 18.1758 46.7598C18.9883 46.7598 19.6816 46.9902 20.2559 47.4512C20.2285 47.5527 20.1992 47.6504 20.168 47.7441C20.0781 48.002 20.0117 48.1875 19.9688 48.3008L19.834 48.6465C19.8262 48.6777 19.8203 48.6934 19.8164 48.6934C19.8086 48.6934 19.7773 48.6523 19.7227 48.5703C19.4766 48.2852 19.0938 48.0977 18.5742 48.0078C18.4141 47.9766 18.25 47.9609 18.082 47.9609C17.3711 47.9609 17.0156 48.1758 17.0156 48.6055C17.0156 48.7539 17.0898 48.8672 17.2383 48.9453C17.5156 49.0938 17.8945 49.2031 18.375 49.2734C18.8594 49.3438 19.2266 49.4395 19.4766 49.5605C19.7266 49.6777 19.9277 49.8203 20.0801 49.9883C20.3613 50.293 20.502 50.6973 20.502 51.2012C20.502 51.752 20.2812 52.1992 19.8398 52.543C19.3789 52.9062 18.7363 53.0879 17.9121 53.0879ZM23.4492 52.3438C23.4492 52.6797 23.457 52.8984 23.4727 53H22.0137V44.6211H23.4492V47.334C23.9531 46.9512 24.4727 46.7598 25.0078 46.7598C25.6641 46.7598 26.1914 46.9766 26.5898 47.4102C26.9805 47.8438 27.1758 48.418 27.1758 49.1328V51.4648C27.1758 52.125 27.1855 52.5215 27.2051 52.6543C27.2246 52.7871 27.25 52.873 27.2812 52.9121C27.3164 52.9512 27.3457 52.9863 27.3691 53.0176L27.3574 53.041C27.041 53.0137 26.8105 53 26.666 53H26.25C26.1211 53 25.9512 53.0059 25.7402 53.0176V49.625C25.7402 49.0859 25.6211 48.6875 25.3828 48.4297C25.2031 48.2344 24.959 48.1367 24.6504 48.1367C24.1934 48.1367 23.793 48.4004 23.4492 48.9277V52.3438ZM30.3223 47.0996C30.7598 46.873 31.207 46.7598 31.6641 46.7598C32.1211 46.7598 32.5137 46.832 32.8418 46.9766C33.1738 47.1172 33.4648 47.3203 33.7148 47.5859C34.2578 48.1758 34.5293 48.9219 34.5293 49.8242C34.5293 50.8125 34.2344 51.6094 33.6445 52.2148C33.0781 52.7969 32.373 53.0879 31.5293 53.0879C30.7871 53.0879 30.1758 52.8945 29.6953 52.5078C29.1562 52.0703 28.8867 51.4668 28.8867 50.6973V44.2812H30.3223V47.0996ZM30.3223 50.6797C30.3223 51.3672 30.75 51.7109 31.6055 51.7109C32.0234 51.7109 32.375 51.5273 32.6602 51.1602C32.9492 50.7852 33.0938 50.3184 33.0938 49.7598C33.0938 49.1973 32.9414 48.7734 32.6367 48.4883C32.3633 48.2344 31.9961 48.1074 31.5352 48.1074C31.2578 48.1074 30.9512 48.2012 30.6152 48.3887C30.5098 48.4473 30.4121 48.5117 30.3223 48.582V50.6797ZM35.373 49.9707C35.373 49.541 35.4453 49.1309 35.5898 48.7402C35.7383 48.3457 35.9492 48.002 36.2227 47.709C36.8203 47.0762 37.5957 46.7598 38.5488 46.7598C39.498 46.7598 40.252 47.0586 40.8105 47.6562C41.3457 48.2266 41.6133 48.9668 41.6133 49.877C41.6133 50.7871 41.3379 51.541 40.7871 52.1387C40.2051 52.7715 39.4336 53.0879 38.4727 53.0879C37.4805 53.0879 36.7031 52.7773 36.1406 52.1562C35.6289 51.5898 35.373 50.8613 35.373 49.9707ZM36.7969 49.9355C36.7969 50.1816 36.8379 50.4199 36.9199 50.6504C37.002 50.8809 37.1191 51.0781 37.2715 51.2422C37.5957 51.5977 38.0215 51.7754 38.5488 51.7754C39.0371 51.7754 39.4219 51.6016 39.7031 51.2539C39.9766 50.918 40.1133 50.4805 40.1133 49.9414C40.1133 49.3945 39.9727 48.9531 39.6914 48.6172C39.3906 48.2578 38.9785 48.0781 38.4551 48.0781C37.9238 48.0781 37.5078 48.2695 37.207 48.6523C36.9336 49.0039 36.7969 49.4316 36.7969 49.9355ZM46.8809 52.6367C46.3262 52.9375 45.8242 53.0879 45.375 53.0879C44.9258 53.0879 44.541 53.0469 44.2207 52.9648C43.9004 52.8789 43.6289 52.7539 43.4062 52.5898C42.9531 52.2578 42.7266 51.7773 42.7266 51.1484C42.7266 50.5859 43.0039 50.1172 43.5586 49.7422C44.1602 49.3359 44.9766 49.1328 46.0078 49.1328L46.2422 49.1387C46.2891 49.1426 46.3418 49.1465 46.4004 49.1504C46.459 49.1504 46.5117 49.1543 46.5586 49.1621C46.5273 48.5371 46.2578 48.1719 45.75 48.0664C45.582 48.0312 45.4023 48.0137 45.2109 48.0137C45.0234 48.0137 44.8379 48.0312 44.6543 48.0664C44.4746 48.0977 44.2988 48.1406 44.127 48.1953C43.748 48.3164 43.4766 48.4551 43.3125 48.6113L43.2949 48.5996L43.1191 47.3047C43.8105 46.9414 44.5664 46.7598 45.3867 46.7598C46.6602 46.7598 47.4746 47.2188 47.8301 48.1367C47.9434 48.4297 48 48.7598 48 49.127V51.248C48 51.7012 48.1602 52.0098 48.4805 52.1738L47.4199 53.1465C47.1973 53.0293 47.0176 52.8594 46.8809 52.6367ZM46.5645 50.2168C46.459 50.1973 46.3496 50.1875 46.2363 50.1875H46.002C45.1387 50.1875 44.5898 50.3789 44.3555 50.7617C44.2852 50.875 44.25 50.9941 44.25 51.1191C44.25 51.2441 44.2715 51.3555 44.3145 51.4531C44.3613 51.5469 44.4375 51.625 44.543 51.6875C44.7461 51.8047 45.0469 51.8633 45.4453 51.8633C45.8477 51.8633 46.2227 51.7676 46.5703 51.5762C46.5664 51.5332 46.5645 51.4883 46.5645 51.4414V50.2168ZM51.2168 52.3438C51.2168 52.6797 51.2246 52.8984 51.2402 53H49.7812V46.877H51.2168V47.3281C51.5488 46.9492 51.8965 46.7598 52.2598 46.7598C52.627 46.7598 52.916 46.8047 53.127 46.8945L53.0215 48.4707L52.998 48.4883C52.8613 48.2461 52.5781 48.125 52.1484 48.125C51.9844 48.125 51.8164 48.1816 51.6445 48.2949C51.4766 48.4043 51.334 48.5508 51.2168 48.7344V52.3438ZM58.043 52.6719C57.5469 52.9492 57.0508 53.0879 56.5547 53.0879C56.0586 53.0879 55.625 53.0098 55.2539 52.8535C54.8828 52.6973 54.5664 52.4824 54.3047 52.209C53.7656 51.6465 53.4961 50.916 53.4961 50.0176C53.4961 49.0879 53.8086 48.3145 54.4336 47.6973C55.0625 47.0723 55.8672 46.7598 56.8477 46.7598C57.1484 46.7598 57.4434 46.7988 57.7324 46.877V44.2695H59.168V50.5332C59.168 51.0527 59.1914 51.3926 59.2383 51.5527C59.2891 51.7129 59.3438 51.8301 59.4023 51.9043C59.4648 51.9785 59.543 52.0488 59.6367 52.1152L58.5352 53.0879C58.332 52.9785 58.168 52.8398 58.043 52.6719ZM56.8301 51.7402C57.1582 51.7402 57.459 51.6777 57.7324 51.5527V48.3066C57.459 48.1934 57.1621 48.1367 56.8418 48.1367C56.5215 48.1367 56.2461 48.1797 56.0156 48.2656C55.7891 48.3516 55.5938 48.4707 55.4297 48.623C55.0859 48.9434 54.9141 49.3594 54.9141 49.8711C54.9141 50.4297 55.0703 50.875 55.3828 51.207C55.7188 51.5625 56.2012 51.7402 56.8301 51.7402Z" fill="#BF9ACA"/>
</svg>
