<svg width="50" height="57" viewBox="0 0 50 57" fill="none" xmlns="http://www.w3.org/2000/svg">
<path d="M22.8823 5.55648L18.9923 2M9.9149 11.8189C15.9043 6.10436 21.6795 10.4583 23.8184 12.8394C25.9947 10.4616 32.9404 6.20183 39.0342 11.9085C46.6514 19.0417 37.946 33.3085 31.417 36.3657C28.1525 37.8943 23.8184 36.3085 23.8184 35.2895C23.8184 36.3099 20.61 37.8405 17.4016 36.3099C10.9846 33.2485 2.42841 18.9621 9.9149 11.8189Z" stroke="#96C5B0" stroke-width="3" stroke-linecap="round" stroke-linejoin="round"/>
<path d="M1.06055 53C1.08398 52.8672 1.0957 52.7227 1.0957 52.5664V45.207H2.26758L5.37305 50.0938V45.6055C5.37305 45.3906 5.35352 45.2578 5.31445 45.207H6.89648C6.87695 45.3633 6.86719 45.5352 6.86719 45.7227V53H5.64844L2.58984 48.3066V53H1.06055ZM12.498 52.4668C11.998 52.8809 11.4531 53.0879 10.8633 53.0879C10.2305 53.0879 9.73438 52.875 9.375 52.4492C9.03125 52.0352 8.85938 51.4668 8.85938 50.7441V48.418C8.85938 47.6367 8.8418 47.1895 8.80664 47.0762C8.77539 46.959 8.75195 46.8848 8.73633 46.8535C8.91602 46.8691 9.10352 46.877 9.29883 46.877H9.78516C9.91406 46.877 10.084 46.8711 10.2949 46.8594V50.252C10.2949 51.0566 10.5137 51.5234 10.9512 51.6523C11.084 51.6914 11.2285 51.7109 11.3848 51.7109C11.8457 51.7109 12.2168 51.543 12.498 51.207V46.877H13.9512V52.25C13.9512 52.5938 13.9668 52.8438 13.998 53H12.498V52.4668ZM18.5449 51.7109C19.0488 51.7109 19.3945 51.5801 19.582 51.3184H19.6289L19.6465 52.6777C19.4551 52.8691 19.0996 52.9961 18.5801 53.0586C18.4395 53.0781 18.2637 53.0879 18.0527 53.0879C17.8457 53.0879 17.6191 53.0488 17.373 52.9707C17.1309 52.8926 16.9238 52.7656 16.752 52.5898C16.3965 52.2266 16.2188 51.6582 16.2188 50.8848V48.2246H15.334C15.3301 48.1113 15.3281 47.9961 15.3281 47.8789V46.9766C15.3281 46.9102 15.3301 46.877 15.334 46.877H16.2188V45.207H17.6543V46.877H19.2656V48.2246H17.6543V50.6152C17.6543 51.2285 17.8242 51.5781 18.1641 51.6641C18.2734 51.6953 18.4004 51.7109 18.5449 51.7109ZM22.2246 52.3438C22.2246 52.6797 22.2324 52.8984 22.248 53H20.7891V46.877H22.2246V47.3281C22.5566 46.9492 22.9043 46.7598 23.2676 46.7598C23.6348 46.7598 23.9238 46.8047 24.1348 46.8945L24.0293 48.4707L24.0059 48.4883C23.8691 48.2461 23.5859 48.125 23.1562 48.125C22.9922 48.125 22.8242 48.1816 22.6523 48.2949C22.4844 48.4043 22.3418 48.5508 22.2246 48.7344V52.3438ZM24.6621 45.1309C24.9746 44.6426 25.3008 44.2129 25.6406 43.8418L26.9004 44.832C26.7324 45.0391 26.5762 45.2422 26.4316 45.4414C26.4316 45.4414 26.2812 45.6543 25.9805 46.0801L24.6621 45.1309ZM26.2031 52.3438C26.2031 52.6797 26.2109 52.8984 26.2266 53H24.7383V46.877H26.2031V52.3438ZM30.5801 51.7109C31.084 51.7109 31.4297 51.5801 31.6172 51.3184H31.6641L31.6816 52.6777C31.4902 52.8691 31.1348 52.9961 30.6152 53.0586C30.4746 53.0781 30.2988 53.0879 30.0879 53.0879C29.8809 53.0879 29.6543 53.0488 29.4082 52.9707C29.166 52.8926 28.959 52.7656 28.7871 52.5898C28.4316 52.2266 28.2539 51.6582 28.2539 50.8848V48.2246H27.3691C27.3652 48.1113 27.3633 47.9961 27.3633 47.8789V46.9766C27.3633 46.9102 27.3652 46.877 27.3691 46.877H28.2539V45.207H29.6895V46.877H31.3008V48.2246H29.6895V50.6152C29.6895 51.2285 29.8594 51.5781 30.1992 51.6641C30.3086 51.6953 30.4355 51.7109 30.5801 51.7109ZM32.6895 45.1309C33.002 44.6426 33.3281 44.2129 33.668 43.8418L34.9277 44.832C34.7598 45.0391 34.6035 45.2422 34.459 45.4414C34.459 45.4414 34.3086 45.6543 34.0078 46.0801L32.6895 45.1309ZM34.2305 52.3438C34.2305 52.6797 34.2383 52.8984 34.2539 53H32.7656V46.877H34.2305V52.3438ZM35.4434 49.9707C35.4434 49.541 35.5156 49.1309 35.6602 48.7402C35.8086 48.3457 36.0195 48.002 36.293 47.709C36.8906 47.0762 37.666 46.7598 38.6191 46.7598C39.5684 46.7598 40.3223 47.0586 40.8809 47.6562C41.416 48.2266 41.6836 48.9668 41.6836 49.877C41.6836 50.7871 41.4082 51.541 40.8574 52.1387C40.2754 52.7715 39.5039 53.0879 38.543 53.0879C37.5508 53.0879 36.7734 52.7773 36.2109 52.1562C35.6992 51.5898 35.4434 50.8613 35.4434 49.9707ZM36.8672 49.9355C36.8672 50.1816 36.9082 50.4199 36.9902 50.6504C37.0723 50.8809 37.1895 51.0781 37.3418 51.2422C37.666 51.5977 38.0918 51.7754 38.6191 51.7754C39.1074 51.7754 39.4922 51.6016 39.7734 51.2539C40.0469 50.918 40.1836 50.4805 40.1836 49.9414C40.1836 49.3945 40.043 48.9531 39.7617 48.6172C39.4609 48.2578 39.0488 48.0781 38.5254 48.0781C37.9941 48.0781 37.5781 48.2695 37.2773 48.6523C37.0039 49.0039 36.8672 49.4316 36.8672 49.9355ZM44.4492 52.25C44.4492 52.5938 44.4648 52.8438 44.4961 53H43.0254V46.877H44.4492V47.3984C44.9648 46.9727 45.5156 46.7598 46.1016 46.7598C46.7422 46.7598 47.2539 46.9785 47.6367 47.416C48.0195 47.8496 48.2109 48.4219 48.2109 49.1328V51.4648C48.2109 52.125 48.2207 52.5215 48.2402 52.6543C48.2598 52.7871 48.2852 52.873 48.3164 52.9121C48.3516 52.9512 48.3809 52.9863 48.4043 53.0176L48.3926 53.041C48.0762 53.0137 47.8457 53 47.7012 53H47.291C47.166 53 46.998 53.0059 46.7871 53.0176V49.8242C46.7871 48.6797 46.4395 48.1074 45.7441 48.1074C45.2285 48.1074 44.7969 48.373 44.4492 48.9043V52.25Z" fill="#96C5B0"/>
</svg>
