<svg width="67" height="56" viewBox="0 0 67 56" fill="none" xmlns="http://www.w3.org/2000/svg">
<path d="M13.0481 31.5312L11.5481 31.5313L14.5481 31.5312L13.0481 31.5312ZM13.0481 7.46873L14.5481 7.46879L11.5481 7.46863L13.0481 7.46873ZM53.9565 7.46873L55.4565 7.4718L52.4566 7.46407L53.9565 7.46873ZM53.9565 31.5312L52.4566 31.5359L55.4565 31.528L53.9565 31.5312ZM15.9099 2V0.5C15.8982 0.5 15.8864 0.500139 15.8746 0.500417L15.9099 2ZM21.6383 2L21.6737 0.500417C21.6619 0.500139 21.6501 0.5 21.6383 0.5V2ZM24.5003 4.91812L23.0007 4.88211C23.0005 4.89411 23.0003 4.90612 23.0003 4.91812H24.5003ZM24.5003 34.0819H23.0003C23.0003 34.0939 23.0005 34.1059 23.0007 34.1179L24.5003 34.0819ZM21.6383 37V38.5C21.65 38.5 21.6618 38.4999 21.6736 38.4996L21.6383 37ZM15.9099 37L15.8747 38.4996C15.8864 38.4999 15.8982 38.5 15.9099 38.5V37ZM13.048 34.0819L14.5476 34.1178C14.5479 34.1058 14.548 34.0939 14.548 34.0819H13.048ZM4.86274 28.25L4.82748 29.7496C4.83923 29.7499 4.85098 29.75 4.86274 29.75V28.25ZM2.00081 25.3319L3.50038 25.3678C3.50067 25.3558 3.50081 25.3439 3.50081 25.3319H2.00081ZM2.00081 13.6681H3.50081C3.50081 13.6561 3.50067 13.6442 3.50038 13.6322L2.00081 13.6681ZM4.86274 10.75V9.25C4.85098 9.25 4.83923 9.25014 4.82748 9.25041L4.86274 10.75ZM13.048 4.91812H14.548C14.548 4.90615 14.5479 4.89417 14.5476 4.8822L13.048 4.91812ZM51.09 37V38.5C51.1018 38.5 51.1136 38.4999 51.1253 38.4996L51.09 37ZM45.3617 37L45.3264 38.4996C45.3382 38.4999 45.3499 38.5 45.3617 38.5V37ZM42.4998 34.0819L43.9993 34.1179C43.9996 34.1059 43.9998 34.0939 43.9998 34.0819H42.4998ZM42.4998 4.91812H43.9998C43.9998 4.90612 43.9996 4.89411 43.9993 4.88211L42.4998 4.91812ZM45.3617 2V0.5C45.3499 0.5 45.3381 0.500139 45.3263 0.500417L45.3617 2ZM51.09 2L51.1254 0.500417C51.1136 0.500139 51.1018 0.5 51.09 0.5V2ZM53.952 4.91812L52.4524 4.88211C52.4521 4.89411 52.452 4.90612 52.452 4.91812H53.952ZM62.1328 10.75L62.1656 9.25036C62.1547 9.25012 62.1437 9.25 62.1328 9.25V10.75ZM64.1879 11.6316L65.2583 10.5808L65.2578 10.5803L64.1879 11.6316ZM64.9992 13.6681L63.4996 13.6324C63.4993 13.6443 63.4992 13.6562 63.4992 13.6681H64.9992ZM64.9992 25.3319H63.4992C63.4992 25.3439 63.4993 25.3559 63.4996 25.3679L64.9992 25.3319ZM62.1373 28.25V29.75C62.149 29.75 62.1608 29.7499 62.1725 29.7496L62.1373 28.25ZM53.952 34.0819H52.452C52.452 34.0939 52.4521 34.1059 52.4524 34.1179L53.952 34.0819ZM11.548 28.25C11.548 30.0622 11.548 29.9159 11.5481 31.5313L14.5481 31.5311C14.548 29.9157 14.548 30.0621 14.548 28.25H11.548ZM14.5481 31.5312C14.548 29.2112 14.548 30.4121 14.548 28.6H11.548C11.548 30.4122 11.548 29.2115 11.5481 31.5313L14.5481 31.5312ZM14.548 28.6V28.25H11.548V28.6H14.548ZM14.548 10.75C14.548 8.93787 14.548 9.70009 14.5481 7.46879L11.5481 7.46867C11.548 9.69991 11.548 8.93779 11.548 10.75H14.548ZM11.5481 7.46863C11.5481 7.816 11.5481 7.97202 11.5481 8.03902C11.5481 8.07415 11.5481 8.0827 11.5481 8.08227C11.5481 8.08199 11.5481 8.08145 11.5481 8.08076C11.5481 8.08027 11.5481 8.0787 11.5481 8.07666C11.5481 8.07553 11.5481 8.07257 11.5481 8.07075C11.5482 8.06728 11.5484 8.05497 11.5486 8.04613C11.5526 7.96989 13.1094 6.58752 14.5464 8.0161C14.5472 8.03637 14.5478 8.062 14.5479 8.06736C14.548 8.06988 14.548 8.07383 14.548 8.07526C14.548 8.0762 14.548 8.0778 14.548 8.07844C14.548 8.07974 14.548 8.08075 14.548 8.08117C14.548 8.08209 14.548 8.08276 14.548 8.08288C14.548 8.08331 14.548 8.08321 14.548 8.08199C14.548 8.0799 14.548 8.07732 14.548 8.07483C14.548 8.07388 14.548 8.07245 14.548 8.07137C14.548 8.07112 14.548 8.0704 14.548 8.06953C14.548 8.06922 14.548 8.06806 14.548 8.06659C14.548 8.06573 14.548 8.06332 14.548 8.06177C14.548 8.05829 14.5476 8.03866 14.5472 8.02251C13.0546 6.57302 11.5486 8.0316 11.5482 8.05391C11.5481 8.05786 11.5481 8.0635 11.5481 8.06518C11.548 8.06752 11.548 8.06939 11.548 8.06961C11.548 8.07069 11.548 8.07159 11.548 8.07184C11.548 8.0738 11.548 8.07821 11.548 8.08532C11.548 8.10044 11.548 8.13164 11.548 8.1916C11.548 8.31156 11.548 8.54696 11.548 9H14.548C14.548 8.54695 14.548 8.31158 14.548 8.19163C14.548 8.13163 14.548 8.10059 14.548 8.08564C14.548 8.08191 14.548 8.07923 14.548 8.07738C14.548 8.07531 14.548 8.07477 14.548 8.07493C14.548 8.07501 14.548 8.07517 14.548 8.07538C14.548 8.07557 14.548 8.076 14.548 8.07657C14.548 8.07673 14.548 8.07855 14.548 8.08087C14.548 8.08254 14.548 8.08816 14.5479 8.09211C14.5475 8.11442 13.0414 9.57299 11.5489 8.12351C11.5484 8.10736 11.5481 8.08773 11.5481 8.08426C11.5481 8.08272 11.5481 8.08032 11.548 8.07948C11.548 8.07805 11.548 8.07694 11.548 8.07669C11.548 8.07595 11.548 8.07542 11.548 8.07541C11.548 8.07527 11.548 8.07561 11.548 8.07683C11.548 8.07868 11.548 8.0821 11.548 8.08446C11.548 8.08547 11.548 8.0872 11.548 8.08869C11.548 8.08908 11.548 8.08996 11.5481 8.09104C11.5481 8.09154 11.5481 8.09261 11.5481 8.09397C11.5481 8.09464 11.5481 8.09625 11.5481 8.09721C11.5481 8.09866 11.5481 8.10263 11.5482 8.10516C11.5482 8.11052 11.5489 8.13616 11.5497 8.15643C12.9867 9.58502 14.5435 8.20265 14.5475 8.12641C14.5477 8.11756 14.5479 8.10524 14.548 8.10176C14.548 8.09993 14.548 8.09695 14.548 8.09579C14.548 8.09248 14.548 8.08973 14.548 8.08971C14.5481 8.08563 14.5481 8.07158 14.5481 8.0396C14.5481 7.97238 14.5481 7.81616 14.5481 7.46883L11.5481 7.46863ZM11.548 9V10.75H14.548V9H11.548ZM55.452 10.75C55.452 9.84512 55.4531 9.0258 55.4543 8.43269C55.4548 8.13615 55.4554 7.89621 55.4558 7.73046C55.456 7.64758 55.4562 7.58326 55.4563 7.53968C55.4564 7.51789 55.4565 7.50129 55.4565 7.49015C55.4565 7.48458 55.4565 7.48038 55.4565 7.47757C55.4565 7.47617 55.4565 7.47512 55.4565 7.47442C55.4565 7.47407 55.4565 7.47381 55.4565 7.47364C55.4565 7.47355 55.4565 7.47349 55.4565 7.47345C55.4565 7.47343 55.4565 7.47341 55.4565 7.4734C55.4565 7.4734 55.4565 7.47339 53.9565 7.46873C52.4566 7.46407 52.4566 7.46408 52.4566 7.46409C52.4566 7.4641 52.4566 7.46412 52.4566 7.46415C52.4566 7.4642 52.4566 7.46427 52.4565 7.46436C52.4565 7.46455 52.4565 7.46482 52.4565 7.46519C52.4565 7.46591 52.4565 7.467 52.4565 7.46843C52.4565 7.4713 52.4565 7.47556 52.4565 7.48119C52.4565 7.49246 52.4564 7.50919 52.4564 7.53111C52.4562 7.57495 52.456 7.63956 52.4558 7.72273C52.4554 7.88906 52.4548 8.12966 52.4543 8.42692C52.4531 9.0214 52.452 9.84271 52.452 10.75H55.452ZM52.4565 7.46566C52.452 9.69592 52.452 8.99803 52.452 10.75H55.452C55.452 9.00197 55.452 9.70408 55.4565 7.4718L52.4565 7.46566ZM52.452 28.25C52.452 30.0642 52.4533 30.0042 52.4565 31.5344L55.4565 31.528C55.4533 29.9958 55.452 30.0601 55.452 28.25H52.452ZM53.9565 31.5312C55.4565 31.5266 55.4565 31.5266 55.4565 31.5266C55.4565 31.5265 55.4565 31.5265 55.4565 31.5265C55.4565 31.5265 55.4565 31.5264 55.4565 31.5263C55.4565 31.5262 55.4565 31.5259 55.4565 31.5255C55.4565 31.5248 55.4565 31.5238 55.4565 31.5224C55.4565 31.5196 55.4565 31.5154 55.4565 31.5098C55.4565 31.4987 55.4564 31.4821 55.4563 31.4603C55.4562 31.4167 55.456 31.3524 55.4558 31.2695C55.4554 31.1037 55.4548 30.8638 55.4543 30.5673C55.4531 29.9742 55.452 29.1549 55.452 28.25H52.452C52.452 29.1573 52.4531 29.9786 52.4543 30.573C52.4548 30.8703 52.4554 31.1109 52.4558 31.2772C52.456 31.3604 52.4562 31.425 52.4564 31.4689C52.4564 31.4908 52.4565 31.5075 52.4565 31.5188C52.4565 31.5244 52.4565 31.5287 52.4565 31.5315C52.4565 31.533 52.4565 31.534 52.4565 31.5348C52.4565 31.5351 52.4565 31.5354 52.4565 31.5356C52.4566 31.5357 52.4566 31.5358 52.4566 31.5358C52.4566 31.5358 52.4566 31.5359 52.4566 31.5359C52.4566 31.5359 52.4566 31.5359 53.9565 31.5312ZM25.8 16.6C25.395 16.6 25.1733 16.5787 25.0053 16.5673C24.9657 16.5647 24.891 16.5597 24.8122 16.5597C24.7729 16.5597 24.5416 16.5555 24.2794 16.644C24.1291 16.6948 23.8844 16.8032 23.6609 17.0375C23.4155 17.2948 23.2867 17.6086 23.2515 17.9094C23.1963 18.3792 23.383 18.7361 23.3933 18.758C23.4342 18.8452 23.4813 18.9239 23.4869 18.9337C23.5043 18.9634 23.5094 18.9721 23.5161 18.9843C23.5248 19 23.5322 19.0149 23.5405 19.0373C23.5553 19.0773 23.6 19.2141 23.6 19.5H26.6C26.6 18.8798 26.4992 18.3886 26.3541 17.9962C26.2823 17.8024 26.2061 17.65 26.1439 17.537C26.1152 17.4849 26.0881 17.4389 26.0784 17.4223C26.0571 17.3858 26.0823 17.4265 26.1088 17.4829C26.1239 17.5151 26.1588 17.5922 26.1882 17.6981C26.216 17.798 26.2613 18.0009 26.231 18.2589C26.1968 18.5506 26.0714 18.8568 25.832 19.1079C25.6145 19.336 25.3783 19.4394 25.2394 19.4863C25.1 19.5334 24.986 19.5479 24.9325 19.5533C24.8732 19.5593 24.8289 19.5597 24.8113 19.5597C24.7801 19.5597 24.7664 19.558 24.8033 19.5605C24.9413 19.5698 25.273 19.6 25.8 19.6V16.6ZM23.6 19.5C23.6 19.82 23.5443 19.8175 23.6226 19.6701C23.659 19.6016 23.7674 19.4214 24.0054 19.2648C24.1225 19.1878 24.3252 19.0815 24.6035 19.048C24.8802 19.0147 25.3435 19.0494 25.7473 19.4082C26.1706 19.7842 26.265 20.2812 26.2359 20.6265C26.2087 20.9498 26.0813 21.1808 25.997 21.3039C25.8253 21.5547 25.6296 21.6601 25.5712 21.689C25.4362 21.7561 25.4542 21.7 25.8 21.7V18.7C25.2139 18.7 24.6784 18.7829 24.2373 19.0019C24.026 19.1068 23.7392 19.2914 23.5219 19.6087C23.4147 19.7652 23.2759 20.0263 23.2465 20.3747C23.2153 20.745 23.317 21.262 23.7548 21.6509C24.1731 22.0225 24.6581 22.0631 24.9618 22.0265C25.2672 21.9898 25.5021 21.8712 25.6546 21.7708C25.9635 21.5676 26.1555 21.2967 26.2719 21.0776C26.5102 20.6291 26.6 20.0861 26.6 19.5H23.6ZM27.3 20.2V18.1H24.3V20.2H27.3ZM41.2 21.7C41.5458 21.7 41.5638 21.7561 41.4287 21.689C41.3704 21.6601 41.1747 21.5547 41.003 21.3039C40.9186 21.1808 40.7913 20.9499 40.764 20.6266C40.7349 20.2813 40.8293 19.7843 41.2527 19.4082C41.6565 19.0494 42.1197 19.0147 42.3965 19.048C42.6748 19.0815 42.8775 19.1878 42.9946 19.2648C43.2326 19.4215 43.341 19.6016 43.3774 19.6701C43.4557 19.8175 43.4 19.82 43.4 19.5H40.4C40.4 20.0861 40.4898 20.6291 40.7281 21.0776C40.8445 21.2967 41.0365 21.5675 41.3453 21.7708C41.4978 21.8712 41.7328 21.9898 42.0382 22.0265C42.3419 22.0631 42.8269 22.0225 43.2452 21.6509C43.683 21.2619 43.7847 20.7449 43.7534 20.3746C43.7241 20.0263 43.5853 19.7652 43.4781 19.6087C43.2608 19.2914 42.974 19.1068 42.7626 19.0019C42.3216 18.7829 41.7861 18.7 41.2 18.7V21.7ZM43.4 19.5C43.4 19.2141 43.4447 19.0773 43.4595 19.0373C43.4678 19.0149 43.4752 19 43.4839 18.9843C43.4906 18.9721 43.4957 18.9634 43.5131 18.9337C43.5188 18.9239 43.5658 18.8452 43.6067 18.758C43.617 18.736 43.8037 18.3791 43.7485 17.9093C43.7132 17.6085 43.5844 17.2948 43.339 17.0375C43.1156 16.8032 42.8708 16.6948 42.7206 16.644C42.4584 16.5555 42.2271 16.5597 42.1878 16.5597C42.109 16.5597 42.0343 16.5647 41.9947 16.5673C41.8267 16.5787 41.605 16.6 41.2 16.6V19.6C41.727 19.6 42.0587 19.5698 42.1967 19.5605C42.2336 19.558 42.2199 19.5597 42.1887 19.5597C42.1711 19.5597 42.1268 19.5593 42.0675 19.5533C42.014 19.5479 41.9 19.5334 41.7606 19.4863C41.6217 19.4394 41.3855 19.336 41.168 19.108C40.9286 18.8569 40.8032 18.5507 40.769 18.259C40.7387 18.001 40.784 17.7981 40.8118 17.6982C40.8412 17.5923 40.876 17.5151 40.8912 17.4829C40.9176 17.4266 40.9429 17.3858 40.9215 17.4224C40.9119 17.439 40.8847 17.485 40.856 17.5371C40.7938 17.65 40.7177 17.8024 40.6459 17.9963C40.5008 18.3886 40.4 18.8798 40.4 19.5H43.4ZM39.7 18.1V20.2H42.7V18.1H39.7ZM14.548 28.6V10.75H11.548V28.6H14.548ZM11.548 9V28.25H14.548V9H11.548ZM52.452 10.75V28.25H55.452V10.75H52.452ZM25.8 21.7H41.2V18.7H25.8V21.7ZM41.2 16.6H25.8V19.6H41.2V16.6ZM15.9099 3.5H21.6383V0.5H15.9099V3.5ZM21.6029 3.49958C22.4334 3.51918 23.0177 4.17626 23.0007 4.88211L25.9999 4.95414C26.0585 2.51218 24.0807 0.557209 21.6737 0.500417L21.6029 3.49958ZM23.0003 4.91812V34.0819H26.0003V4.91812H23.0003ZM23.0007 34.1179C23.0177 34.8237 22.4333 35.4809 21.603 35.5004L21.6736 38.4996C24.0809 38.443 26.0585 36.4874 25.9999 34.0459L23.0007 34.1179ZM21.6383 35.5H15.9099V38.5H21.6383V35.5ZM15.9452 35.5004C15.1151 35.4809 14.5307 34.8238 14.5476 34.1178L11.5485 34.0459C11.49 36.4873 13.4672 38.443 15.8747 38.4996L15.9452 35.5004ZM14.548 34.0819V28.25H11.548V34.0819H14.548ZM13.048 26.75H4.86274V29.75H13.048V26.75ZM4.898 26.7504C4.0679 26.7309 3.48346 26.0738 3.50038 25.3678L0.501242 25.2959C0.442742 27.7373 2.42 29.693 4.82748 29.7496L4.898 26.7504ZM3.50081 25.3319V13.6681H0.500812V25.3319H3.50081ZM3.50038 13.6322C3.48346 12.9262 4.0679 12.2691 4.898 12.2496L4.82748 9.25041C2.42 9.30702 0.442742 11.2627 0.501242 13.7041L3.50038 13.6322ZM4.86274 12.25H13.048V9.25H4.86274V12.25ZM14.548 10.75V4.91812H11.548V10.75H14.548ZM14.5476 4.8822C14.5307 4.17614 15.115 3.51917 15.9453 3.49958L15.8746 0.500417C13.4674 0.557213 11.49 2.5123 11.5485 4.95405L14.5476 4.8822ZM51.09 35.5H45.3617V38.5H51.09V35.5ZM45.397 35.5004C44.5666 35.4809 43.9824 34.8239 43.9993 34.1179L41.0002 34.0459C40.9416 36.4873 42.9187 38.443 45.3264 38.4996L45.397 35.5004ZM43.9993 4.88211C43.9824 4.1761 44.5664 3.51918 45.3971 3.49958L45.3263 0.500417C42.9188 0.55721 40.9416 2.51234 41.0002 4.95414L43.9993 4.88211ZM45.3617 3.5H51.09V0.5H45.3617V3.5ZM51.0547 3.49958C51.885 3.51918 52.4694 4.17626 52.4524 4.88211L55.4515 4.95414C55.5102 2.51218 53.5323 0.557211 51.1254 0.500417L51.0547 3.49958ZM52.452 4.91812V10.75H55.452V4.91812H52.452ZM53.952 12.25H62.1328V9.25H53.952V12.25ZM62.0999 12.2496C62.4931 12.2583 62.8585 12.4188 63.1179 12.6828L65.2578 10.5803C64.4418 9.74971 63.3284 9.27586 62.1656 9.25036L62.0999 12.2496ZM63.1174 12.6824C63.3752 12.945 63.5078 13.2877 63.4996 13.6324L66.4988 13.7038C66.5266 12.5357 66.075 11.4128 65.2583 10.5808L63.1174 12.6824ZM63.4992 13.6681V25.3319H66.4992V13.6681H63.4992ZM63.4996 25.3679C63.5166 26.0737 62.9321 26.7309 62.102 26.7504L62.1725 29.7496C64.5797 29.693 66.5574 27.7374 66.4987 25.2959L63.4996 25.3679ZM62.1373 26.75H53.952V29.75H62.1373V26.75ZM52.452 28.25V34.0819H55.452V28.25H52.452ZM52.4524 34.1179C52.4694 34.8237 51.8849 35.4809 51.0548 35.5004L51.1253 38.4996C53.5325 38.443 55.5102 36.4874 55.4515 34.0459L52.4524 34.1179ZM43.9998 34.0819V19.5H40.9998V34.0819H43.9998ZM43.9998 19.5V4.91812H40.9998V19.5H43.9998Z" fill="#BF9ACA"/>
<path d="M15.9277 51.5938C16.1699 51.5938 16.3379 51.5703 16.4316 51.5234L16.4551 51.5293L16.3965 53H12.0078V45.166C12.1133 45.1738 12.2305 45.1797 12.3594 45.1836L12.7695 45.1953C13.043 45.2031 13.3398 45.207 13.6602 45.207C14.5547 45.207 15.4395 45.1914 16.3145 45.1602C16.2715 45.5039 16.25 45.9629 16.25 46.5371C16.25 46.5996 16.2539 46.6465 16.2617 46.6777L16.25 46.6953C16.0469 46.6367 15.7578 46.6074 15.3828 46.6074H13.5371V48.1016H14.9258C15.3555 48.1016 15.6133 48.0898 15.6992 48.0664L15.7168 49.5137C15.5293 49.4941 15.2871 49.4844 14.9902 49.4844H13.5371V51.5938H15.9277ZM19.2031 49.877L17.1289 46.877H18.9629L20.0469 48.7461L21.2188 46.877H22.9238C22.9199 46.877 22.877 46.9336 22.7949 47.0469L20.8848 49.7715L23.0527 53H21.2363L20.0645 51.0137L18.9043 53H17.0703L19.2031 49.877ZM23.627 49.9883C23.627 49.5312 23.7051 49.1074 23.8613 48.7168C24.0176 48.3262 24.2383 47.9844 24.5234 47.6914C25.1328 47.0703 25.9297 46.7598 26.9141 46.7598C27.7461 46.7598 28.4141 47.0352 28.918 47.5859C29.4141 48.1172 29.6621 48.7852 29.6621 49.5898C29.6621 49.8984 29.6387 50.1094 29.5918 50.2227C29.2012 50.332 28.4062 50.3867 27.207 50.3867H25.1445C25.2461 50.8047 25.4824 51.1309 25.8535 51.3652C26.2246 51.5957 26.707 51.7109 27.3008 51.7109C27.9219 51.7109 28.4551 51.5996 28.9004 51.377C29.0176 51.3184 29.1055 51.2637 29.1641 51.2129C29.1562 51.377 29.1465 51.5449 29.1348 51.7168L29.0703 52.6309C28.7734 52.834 28.293 52.9746 27.6289 53.0527C27.4336 53.0762 27.2461 53.0879 27.0664 53.0879C26.0742 53.0879 25.2539 52.7988 24.6055 52.2207C23.9531 51.6387 23.627 50.8945 23.627 49.9883ZM28.1035 49.25C27.9434 48.4102 27.4863 47.9902 26.7324 47.9902C26.1387 47.9902 25.6875 48.2461 25.3789 48.7578C25.2852 48.9141 25.2129 49.0859 25.1621 49.2734C25.2559 49.2773 25.3711 49.2812 25.5078 49.2852H25.9414C26.0859 49.2891 26.2246 49.291 26.3574 49.291H26.6914C26.8906 49.291 27.0859 49.2891 27.2773 49.2852L27.7578 49.2676C27.8867 49.2637 28.002 49.2578 28.1035 49.25ZM32.3223 52.3438C32.3223 52.6797 32.3301 52.8984 32.3457 53H30.8867V46.877H32.3223V47.3281C32.6543 46.9492 33.002 46.7598 33.3652 46.7598C33.7324 46.7598 34.0215 46.8047 34.2324 46.8945L34.127 48.4707L34.1035 48.4883C33.9668 48.2461 33.6836 48.125 33.2539 48.125C33.0898 48.125 32.9219 48.1816 32.75 48.2949C32.582 48.4043 32.4395 48.5508 32.3223 48.7344V52.3438ZM39.7344 52.4316C39.2969 52.8691 38.6113 53.0879 37.6777 53.0879C36.7715 53.0879 36.0312 52.8125 35.457 52.2617C34.875 51.7031 34.584 50.9609 34.584 50.0352C34.584 49.0938 34.8711 48.3203 35.4453 47.7148C36.0547 47.0781 36.8691 46.7598 37.8887 46.7598C38.6113 46.7598 39.2168 46.918 39.7051 47.2344L39.4707 48.7344L39.4297 48.7285C39.2422 48.502 39.0449 48.3535 38.8379 48.2832C38.502 48.166 38.166 48.1074 37.8301 48.1074C37.4941 48.1074 37.2305 48.1504 37.0391 48.2363C36.8477 48.3223 36.6836 48.4414 36.5469 48.5938C36.2734 48.9062 36.1367 49.3203 36.1367 49.8359C36.1367 50.75 36.4531 51.3477 37.0859 51.6289C37.3047 51.7227 37.5352 51.7695 37.7773 51.7695C38.0234 51.7695 38.2363 51.748 38.416 51.7051C38.5996 51.6621 38.7656 51.6035 38.9141 51.5293C39.2305 51.373 39.4453 51.1914 39.5586 50.9844L39.5996 51.002L39.7344 52.4316ZM40.7715 45.1309C41.084 44.6426 41.4102 44.2129 41.75 43.8418L43.0098 44.832C42.8418 45.0391 42.6855 45.2422 42.541 45.4414C42.541 45.4414 42.3906 45.6543 42.0898 46.0801L40.7715 45.1309ZM42.3125 52.3438C42.3125 52.6797 42.3203 52.8984 42.3359 53H40.8477V46.877H42.3125V52.3438ZM46.0332 53.0879C44.9316 53.0879 44.1016 52.8867 43.543 52.4844C43.5508 52.3672 43.5625 52.2344 43.5781 52.0859L43.6309 51.6641C43.6621 51.3867 43.6816 51.2148 43.6895 51.1484C43.6973 51.0781 43.7031 51.041 43.707 51.0371C43.7109 51.0293 43.7422 51.0605 43.8008 51.1309C43.8594 51.1973 43.9707 51.2793 44.1348 51.377C44.2988 51.4746 44.4883 51.5605 44.7031 51.6348C45.168 51.7949 45.6523 51.875 46.1562 51.875C46.832 51.875 47.1699 51.6504 47.1699 51.2012C47.1699 51.0566 47.1055 50.9492 46.9766 50.8789C46.7461 50.7617 46.4062 50.6738 45.957 50.6152C45.5117 50.5527 45.1465 50.4629 44.8613 50.3457C44.5762 50.2285 44.3438 50.0879 44.1641 49.9238C43.832 49.6152 43.666 49.2109 43.666 48.7109C43.666 48.1016 43.9004 47.623 44.3691 47.2754C44.834 46.9316 45.4766 46.7598 46.2969 46.7598C47.1094 46.7598 47.8027 46.9902 48.377 47.4512C48.3496 47.5527 48.3203 47.6504 48.2891 47.7441C48.1992 48.002 48.1328 48.1875 48.0898 48.3008L47.9551 48.6465C47.9473 48.6777 47.9414 48.6934 47.9375 48.6934C47.9297 48.6934 47.8984 48.6523 47.8438 48.5703C47.5977 48.2852 47.2148 48.0977 46.6953 48.0078C46.5352 47.9766 46.3711 47.9609 46.2031 47.9609C45.4922 47.9609 45.1367 48.1758 45.1367 48.6055C45.1367 48.7539 45.2109 48.8672 45.3594 48.9453C45.6367 49.0938 46.0156 49.2031 46.4961 49.2734C46.9805 49.3438 47.3477 49.4395 47.5977 49.5605C47.8477 49.6777 48.0488 49.8203 48.2012 49.9883C48.4824 50.293 48.623 50.6973 48.623 51.2012C48.623 51.752 48.4023 52.1992 47.9609 52.543C47.5 52.9062 46.8574 53.0879 46.0332 53.0879ZM49.6895 49.9883C49.6895 49.5312 49.7676 49.1074 49.9238 48.7168C50.0801 48.3262 50.3008 47.9844 50.5859 47.6914C51.1953 47.0703 51.9922 46.7598 52.9766 46.7598C53.8086 46.7598 54.4766 47.0352 54.9805 47.5859C55.4766 48.1172 55.7246 48.7852 55.7246 49.5898C55.7246 49.8984 55.7012 50.1094 55.6543 50.2227C55.2637 50.332 54.4688 50.3867 53.2695 50.3867H51.207C51.3086 50.8047 51.5449 51.1309 51.916 51.3652C52.2871 51.5957 52.7695 51.7109 53.3633 51.7109C53.9844 51.7109 54.5176 51.5996 54.9629 51.377C55.0801 51.3184 55.168 51.2637 55.2266 51.2129C55.2188 51.377 55.209 51.5449 55.1973 51.7168L55.1328 52.6309C54.8359 52.834 54.3555 52.9746 53.6914 53.0527C53.4961 53.0762 53.3086 53.0879 53.1289 53.0879C52.1367 53.0879 51.3164 52.7988 50.668 52.2207C50.0156 51.6387 49.6895 50.8945 49.6895 49.9883ZM54.166 49.25C54.0059 48.4102 53.5488 47.9902 52.7949 47.9902C52.2012 47.9902 51.75 48.2461 51.4414 48.7578C51.3477 48.9141 51.2754 49.0859 51.2246 49.2734C51.3184 49.2773 51.4336 49.2812 51.5703 49.2852H52.0039C52.1484 49.2891 52.2871 49.291 52.4199 49.291H52.7539C52.9531 49.291 53.1484 49.2891 53.3398 49.2852L53.8203 49.2676C53.9492 49.2637 54.0645 49.2578 54.166 49.25Z" fill="#BF9ACA"/>
</svg>
